# xmcd CD database file generated by OrangeCD 6.1
#
# Track frame offsets:
#	150
#	16548
#	28665
#	41858
#	59121
#	76422
#	91585
#	109496
#	127943
#	143752
#	170307
#
# Disc length: 2885 seconds
#
# Revision: 0
# Processed by: cddbd v1.5.2PL0 Copyright (c) Steve Scherf et al.
# Submitted via: OrangeCD 6.1
#
DISCID=880b430b
DTITLE=Pegi Young - Pegi Young
DYEAR=1900
DGENRE=Country
TTITLE0=Fake
TTITLE1=Heterosexual Masses
TTITLE2=When The Wild Life Betrays Me
TTITLE3=Hold On
TTITLE4=Love Like Water
TTITLE5=Key To Love
TTITLE6=Sometimes
TTITLE7=Sometimes Like A River (Loving You)
TTITLE8=I Like The Party Life
TTITLE9=White Line In The Sun
TTITLE10=I'm Not Through Loving You Yet/Wrestle Awhile <Bonus Track>
EXTD=
EXTT0=
EXTT1=
EXTT2=
EXTT3=
EXTT4=
EXTT5=
EXTT6=
EXTT7=
EXTT8=
EXTT9=
EXTT10=
PLAYORDER=
